<svg width="54" height="54" viewBox="0 0 54 54" fill="none" xmlns="http://www.w3.org/2000/svg">
<path d="M27 54C41.8887 54 54 41.8887 54 27C54 12.1113 41.8887 0 27 0C12.1113 0 0 12.1113 0 27C0 41.8887 12.1113 54 27 54ZM27 2.25038C40.6463 2.25038 51.7496 13.3537 51.7496 27C51.7496 40.6463 40.6463 51.7496 27 51.7496C13.3537 51.7496 2.25038 40.6463 2.25038 27C2.25038 13.3537 13.3537 2.25038 27 2.25038Z" fill="white"/>
<path d="M19.3517 37.2244C19.5372 37.4698 19.8155 37.6313 20.1206 37.6672C20.1655 37.6732 20.2074 37.6762 20.2523 37.6762C20.5126 37.6762 20.7699 37.5865 20.9734 37.4159L41.2238 20.5411C41.6995 20.1432 41.7653 19.4341 41.3674 18.9583C40.9694 18.4826 40.2633 18.4168 39.7816 18.8147L20.4412 34.9266L14.4033 26.8749C14.0323 26.3782 13.3231 26.2765 12.8295 26.6505C12.3328 27.0215 12.2311 27.7276 12.6051 28.2243L19.3517 37.2244Z" fill="white"/>
</svg>
